<svg width="205" height="63" viewBox="0 0 205 63" fill="none" xmlns="http://www.w3.org/2000/svg">
<path d="M201.316 37.5135C200.689 37.0041 200.062 36.6318 199.435 36.3967C198.808 36.142 198.201 36.0147 197.613 36.0147C196.868 36.0147 196.261 36.191 195.791 36.5437C195.32 36.8963 195.085 37.3567 195.085 37.9249C195.085 38.3167 195.203 38.64 195.438 38.8947C195.673 39.1494 195.977 39.3747 196.349 39.5706C196.741 39.7469 197.172 39.9037 197.642 40.0408C198.132 40.178 198.612 40.3249 199.082 40.4816C200.963 41.1086 202.334 41.951 203.196 43.009C204.078 44.0473 204.519 45.409 204.519 47.0939C204.519 48.2302 204.323 49.2588 203.931 50.1796C203.559 51.1004 203.001 51.8939 202.256 52.56C201.531 53.2065 200.63 53.7061 199.552 54.0588C198.494 54.431 197.289 54.6171 195.938 54.6171C193.136 54.6171 190.54 53.7845 188.15 52.1192L190.618 47.4759C191.481 48.24 192.333 48.8082 193.175 49.1804C194.018 49.5527 194.85 49.7388 195.673 49.7388C196.614 49.7388 197.309 49.5233 197.76 49.0922C198.23 48.6612 198.465 48.1714 198.465 47.6229C198.465 47.2898 198.406 47.0057 198.289 46.7706C198.171 46.5159 197.975 46.2906 197.701 46.0947C197.427 45.8792 197.064 45.6833 196.614 45.5069C196.183 45.3306 195.654 45.1347 195.027 44.9192C194.282 44.6841 193.547 44.4294 192.823 44.1551C192.117 43.8612 191.481 43.4792 190.912 43.009C190.364 42.5388 189.913 41.951 189.561 41.2457C189.227 40.5208 189.061 39.6098 189.061 38.5127C189.061 37.4155 189.237 36.4261 189.59 35.5445C189.962 34.6433 190.472 33.8792 191.118 33.2522C191.784 32.6057 192.587 32.1061 193.528 31.7535C194.488 31.4008 195.556 31.2245 196.731 31.2245C197.828 31.2245 198.974 31.3812 200.169 31.6947C201.365 31.9886 202.511 32.4294 203.608 33.0171L201.316 37.5135Z" fill="black"/>
<path d="M184.996 36.72H178.149V40.4229H184.614V45.3012H178.149V49.1216H184.996V54H172.389V31.8416H184.996V36.72Z" fill="black"/>
<path d="M146.788 54V31.8416H152.548L163.187 45.3894V31.8416H168.917V54H163.187L152.548 40.4522V54H146.788Z" fill="black"/>
<path d="M126.105 42.9208C126.105 43.8024 126.272 44.6155 126.605 45.36C126.938 46.1045 127.388 46.751 127.956 47.2996C128.525 47.8482 129.181 48.2792 129.925 48.5927C130.689 48.8865 131.493 49.0335 132.335 49.0335C133.178 49.0335 133.971 48.8865 134.716 48.5927C135.48 48.2792 136.146 47.8482 136.714 47.2996C137.302 46.751 137.762 46.1045 138.095 45.36C138.428 44.6155 138.595 43.8024 138.595 42.9208C138.595 42.0392 138.428 41.2261 138.095 40.4816C137.762 39.7371 137.302 39.0906 136.714 38.542C136.146 37.9935 135.48 37.5722 134.716 37.2784C133.971 36.9649 133.178 36.8082 132.335 36.8082C131.493 36.8082 130.689 36.9649 129.925 37.2784C129.181 37.5722 128.525 37.9935 127.956 38.542C127.388 39.0906 126.938 39.7371 126.605 40.4816C126.272 41.2261 126.105 42.0392 126.105 42.9208ZM120.081 42.9208C120.081 41.2751 120.384 39.7469 120.992 38.3363C121.599 36.9061 122.441 35.662 123.519 34.6041C124.596 33.5461 125.88 32.7233 127.369 32.1355C128.877 31.5282 130.533 31.2245 132.335 31.2245C134.118 31.2245 135.764 31.5282 137.272 32.1355C138.781 32.7233 140.074 33.5461 141.152 34.6041C142.249 35.662 143.101 36.9061 143.708 38.3363C144.316 39.7469 144.619 41.2751 144.619 42.9208C144.619 44.5665 144.316 46.1045 143.708 47.5347C143.101 48.9453 142.249 50.1796 141.152 51.2376C140.074 52.2955 138.781 53.1282 137.272 53.7355C135.764 54.3233 134.118 54.6171 132.335 54.6171C130.533 54.6171 128.877 54.3233 127.369 53.7355C125.88 53.1282 124.596 52.2955 123.519 51.2376C122.441 50.1796 121.599 48.9453 120.992 47.5347C120.384 46.1045 120.081 44.5665 120.081 42.9208Z" fill="black"/>
<path d="M114.869 36.72V54H109.109V36.72H104.377V31.8416H119.6V36.72H114.869Z" fill="black"/>
<path d="M99.4882 37.5135C98.8612 37.0041 98.2343 36.6318 97.6073 36.3967C96.9804 36.142 96.3731 36.0147 95.7853 36.0147C95.0408 36.0147 94.4335 36.191 93.9633 36.5437C93.4931 36.8963 93.258 37.3567 93.258 37.9249C93.258 38.3167 93.3755 38.64 93.6106 38.8947C93.8457 39.1494 94.1494 39.3747 94.5216 39.5706C94.9135 39.7469 95.3445 39.9037 95.8147 40.0408C96.3045 40.178 96.7845 40.3249 97.2547 40.4816C99.1355 41.1086 100.507 41.951 101.369 43.009C102.251 44.0473 102.691 45.409 102.691 47.0939C102.691 48.2302 102.496 49.2588 102.104 50.1796C101.731 51.1004 101.173 51.8939 100.429 52.56C99.7037 53.2065 98.8025 53.7061 97.7249 54.0588C96.6669 54.431 95.462 54.6171 94.1102 54.6171C91.3086 54.6171 88.7127 53.7845 86.3224 52.1192L88.791 47.4759C89.6531 48.24 90.5053 48.8082 91.3478 49.1804C92.1902 49.5527 93.0229 49.7388 93.8457 49.7388C94.7861 49.7388 95.4816 49.5233 95.9322 49.0922C96.4024 48.6612 96.6376 48.1714 96.6376 47.6229C96.6376 47.2898 96.5788 47.0057 96.4612 46.7706C96.3437 46.5159 96.1478 46.2906 95.8735 46.0947C95.5992 45.8792 95.2367 45.6833 94.7861 45.5069C94.3551 45.3306 93.8261 45.1347 93.1992 44.9192C92.4547 44.6841 91.72 44.4294 90.9951 44.1551C90.2898 43.8612 89.6531 43.4792 89.0849 43.009C88.5363 42.5388 88.0857 41.951 87.7331 41.2457C87.4 40.5208 87.2335 39.6098 87.2335 38.5127C87.2335 37.4155 87.4098 36.4261 87.7624 35.5445C88.1347 34.6433 88.6441 33.8792 89.2906 33.2522C89.9567 32.6057 90.76 32.1061 91.7004 31.7535C92.6604 31.4008 93.7282 31.2245 94.9037 31.2245C96.0008 31.2245 97.1469 31.3812 98.342 31.6947C99.5371 31.9886 100.683 32.4294 101.78 33.0171L99.4882 37.5135Z" fill="black"/>
<path d="M150.961 5.84164L154.781 20.1535L159.483 5.84164H164.068L168.77 20.1535L172.59 5.84164H178.614L172.002 28H166.125L161.775 15.1576L157.426 28H151.548L144.936 5.84164H150.961Z" fill="black"/>
<path d="M127.801 16.9208C127.801 17.8024 127.967 18.6155 128.3 19.36C128.633 20.1045 129.084 20.751 129.652 21.2996C130.22 21.8482 130.876 22.2792 131.621 22.5927C132.385 22.8865 133.188 23.0335 134.031 23.0335C134.873 23.0335 135.667 22.8865 136.411 22.5927C137.175 22.2792 137.841 21.8482 138.41 21.2996C138.997 20.751 139.458 20.1045 139.791 19.36C140.124 18.6155 140.29 17.8024 140.29 16.9208C140.29 16.0392 140.124 15.2261 139.791 14.4816C139.458 13.7371 138.997 13.0906 138.41 12.542C137.841 11.9935 137.175 11.5722 136.411 11.2784C135.667 10.9649 134.873 10.8082 134.031 10.8082C133.188 10.8082 132.385 10.9649 131.621 11.2784C130.876 11.5722 130.22 11.9935 129.652 12.542C129.084 13.0906 128.633 13.7371 128.3 14.4816C127.967 15.2261 127.801 16.0392 127.801 16.9208ZM121.776 16.9208C121.776 15.2751 122.08 13.7469 122.687 12.3363C123.294 10.9061 124.137 9.66204 125.214 8.60408C126.292 7.54612 127.575 6.72326 129.064 6.13551C130.573 5.52816 132.228 5.22449 134.031 5.22449C135.814 5.22449 137.459 5.52816 138.968 6.13551C140.476 6.72326 141.77 7.54612 142.847 8.60408C143.944 9.66204 144.796 10.9061 145.404 12.3363C146.011 13.7469 146.315 15.2751 146.315 16.9208C146.315 18.5665 146.011 20.1045 145.404 21.5347C144.796 22.9453 143.944 24.1796 142.847 25.2376C141.77 26.2955 140.476 27.1282 138.968 27.7355C137.459 28.3233 135.814 28.6171 134.031 28.6171C132.228 28.6171 130.573 28.3233 129.064 27.7355C127.575 27.1282 126.292 26.2955 125.214 25.2376C124.137 24.1796 123.294 22.9453 122.687 21.5347C122.08 20.1045 121.776 18.5665 121.776 16.9208Z" fill="black"/>
<path d="M109.842 14.9812L116.866 5.84164H123.977L115.19 16.3331L124.8 28H117.336L109.842 18.3902V28H104.082V5.84164H109.842V14.9812Z" fill="black"/>
<path d="M99.929 10.72H93.0816V14.4229H99.5469V19.3012H93.0816V23.1216H99.929V28H87.3216V5.84164H99.929V10.72Z" fill="black"/>
<path d="M50.0844 13.2688L37 21.795V0L50.0844 13.2688Z" fill="black"/>
<path d="M75.5 39.0428L37 62.5625V52.6842L62.025 37.6316L55.7687 31.0461L37 42.3355V31.9868L55.7687 20.227L75.5 39.0428Z" fill="black"/>
<path d="M6.1663 32.5878L0 39.0428L37 62.5625V52.6852L6.1663 32.5878Z" fill="#40724D"/>
<path d="M11.8643 26.6231L37 42.3392V32L25.1449 24.5507L31.2175 17.875L37 21.7776V0L11.8643 26.6231Z" fill="#40724D"/>
</svg>
